<svg xmlns="http://www.w3.org/2000/svg" xmlns:xlink="http://www.w3.org/1999/xlink" xmlns:v="http://vecta.io" width="1123" height="794" viewBox="0 0 1123 794" ><style>svg{stroke:#000;stroke-linecap:round;stroke-linejoin:round;fill:#fff;fill-rule:evenodd;font-family:Roboto;font-size:14px;text-anchor:middle} svg text{stroke:none}</style><style>svg{stroke:#000;stroke-linecap:round;stroke-linejoin:round;fill:#fff;fill-rule:evenodd;font-family:Roboto;font-size:14px;text-anchor:middle} svg text{stroke:none}</style><defs><style>@import url("https://fonts.googleapis.com/css?family=Roboto:400,400i,700,700i");</style></defs><g transform="translate(250.5 15.5)"><rect x="0" y="0" width="125" height="40" fill="#ff0000"/><g><text fill="#000000" fill-opacity="1" font-size="18px"><tspan x="62.5" y="25.94">Data</tspan></text></g></g><g transform="translate(310.5 100.5)" style=""><rect x="0" y="0" width="215" height="40" fill="#ccf2ff"/><g><text fill="#000000" fill-opacity="1" font-size="18px"><tspan x="107.5" y="25.94">Complex (Domain data)</tspan></text></g></g><g transform="translate(120.5 100.5)" style=""><rect x="0" y="0" width="125" height="40" fill="#ccf2ff"/><g><text fill="#000000" fill-opacity="1" font-size="18px"><tspan x="62.5" y="25.94">Atomic data</tspan></text></g></g><g transform="translate(485.5 185.5)" style=""><rect x="0" y="0" width="165" height="40" fill="#ccf2ff"/><g><text fill="#000000" fill-opacity="1" font-size="18px"><tspan x="82.5" y="25.94">Unstructured data</tspan></text></g></g><g transform="translate(335.5 185.5)" style=""><rect x="0" y="0" width="140" height="40" fill="#ccf2ff"/><g><text fill="#000000" fill-opacity="1" font-size="18px"><tspan x="70" y="25.94">Structured data</tspan></text></g></g><g transform="translate(175.5 185.5)" style=""><rect x="0" y="0" width="125" height="40" fill="#ccf2ff"/><g><text fill="#000000" fill-opacity="1" font-size="18px"><tspan x="62.5" y="25.94">Quantitative</tspan></text></g></g><g transform="translate(20.5 185.5)" style=""><rect x="0" y="0" width="125" height="40" fill="#ccf2ff"/><g><text fill="#000000" fill-opacity="1" font-size="18px"><tspan x="62.5" y="25.94">Categorical</tspan></text></g></g><g transform="translate(450.5 300.5)" style=""><rect x="0" y="0" width="125" height="40" fill="#ccf2ff"/><g><text fill="#000000" fill-opacity="1" font-size="18px"><tspan x="62.5" y="25.94">Ratio</tspan></text></g></g><g transform="translate(315.5 300.5)" style=""><rect x="0" y="0" width="125" height="40" fill="#ccf2ff"/><g><text fill="#000000" fill-opacity="1" font-size="18px"><tspan x="62.5" y="25.94">Interval</tspan></text></g></g><g transform="translate(155.5 300.5)" style=""><rect x="0" y="0" width="125" height="40" fill="#ccf2ff"/><g><text fill="#000000" fill-opacity="1" font-size="18px"><tspan x="62.5" y="25.94">Nominal</tspan></text></g></g><g transform="translate(10.5 300.5)" style=""><rect x="0" y="0" width="125" height="40" fill="#ccf2ff"/><g><text fill="#000000" fill-opacity="1" font-size="18px"><tspan x="62.5" y="25.94">Ordinal</tspan></text></g></g><g transform="translate(217.6154 55.5)"><path fill="none" d="M 0 45 L 77.8846 0" stroke-width="2"/></g><g transform="translate(337.7059 55.5)"><path fill="none" d="M 1e-13 1e-13 L 55.5882 45" stroke-width="2"/></g><g transform="translate(106.5294 140.5)"><path fill="#ccf2ff" d="M 0 45 L 52.9412 0" stroke-width="3"/></g><g transform="translate(195.9412 140.5)"><path fill="#ccf2ff" d="M 29.1176 45 L 1e-13 1e-13" stroke-width="3"/></g><g transform="translate(408.4412 140.5)"><path fill="#ccf2ff" d="M 0 45 L 6.6176 0" stroke-width="3"/></g><g transform="translate(453.2941 140.5)"><path fill="#ccf2ff" d="M 79.4118 45 L 1e-13 1e-13" stroke-width="3"/></g><g transform="translate(74.7391 225.5)"><path fill="#ccf2ff" d="M 0 75 L 6.5217 0" stroke-width="3"/></g><g transform="translate(85.5 225.5)"><path fill="#ccf2ff" d="M 104.6053 75 L 1e-13 1e-13" stroke-width="3"/></g><g transform="translate(262.3478 225.5)"><path fill="#ccf2ff" d="M 91.3043 75 L 1e-13 1e-13" stroke-width="3"/></g><g transform="translate(265.5 225.5)"><path fill="#ccf2ff" d="M 195.3947 75 L 1e-13 1e-13" stroke-width="3"/></g></svg>
